<svg width="76" height="104" viewBox="0 0 76 104" fill="none" xmlns="http://www.w3.org/2000/svg">
<g clip-path="url(#clip0_337_2306)">
<path d="M0 99.0202V4.48021C0.79 1.42021 2.85 -0.0197946 6.55 0.000205428C23.07 0.0902054 39.58 0.0502054 56.1 0.0202054C57.2 0.0202054 58 0.370205 58.76 1.14021C64.02 6.45021 69.29 11.7402 74.6 16.9902C75.51 17.8902 75.9 18.8302 75.9 20.1002C75.87 45.8202 75.88 71.5302 75.88 97.2502C75.88 97.6502 75.9 98.0602 75.86 98.4602C75.69 100.49 74.74 102.01 72.91 102.95C72.56 103.13 72.21 103.29 71.86 103.45H4.04C1.94 102.66 0.53 101.23 0 99.0102V99.0202ZM55.13 3.48021H53.97C38.03 3.48021 22.08 3.48021 6.14 3.48021C4.04 3.48021 3.54 3.98021 3.54 6.10021C3.54 36.5302 3.54 66.9602 3.54 97.3802C3.54 99.5002 4.04 100.01 6.13 100.01C27.35 100.01 48.58 100.01 69.8 100.01C71.84 100.01 72.36 99.4902 72.36 97.4502C72.36 72.2702 72.36 47.1002 72.36 21.9202C72.36 21.5602 72.33 21.2102 72.3 20.7702C71.84 20.7702 71.47 20.7702 71.11 20.7702C67.78 20.7702 64.45 20.7702 61.12 20.7702C57.22 20.7702 55.13 18.6702 55.13 14.7902C55.13 12.3702 55.13 9.94021 55.13 7.52021C55.13 6.21021 55.13 4.91021 55.13 3.48021ZM69.48 17.2102C65.87 13.6102 62.27 10.0102 58.71 6.45021C58.71 9.46021 58.69 12.6102 58.72 15.7602C58.72 16.6202 59.34 17.1702 60.15 17.1802C63.3 17.2302 66.45 17.2002 69.48 17.2002V17.2102Z" fill="#00B6ED"/>
<path d="M29.33 53.4501V50.0601H63.73V53.4501H29.33Z" fill="#00B6ED"/>
<path d="M63.74 32.83V36.15H29.36V32.83H63.73H63.74Z" fill="#00B6ED"/>
<path d="M29.36 67.29H63.71V70.65H29.36V67.29Z" fill="#00B6ED"/>
<path d="M29.3199 87.8799V84.5699H63.7099V87.8799H29.3199Z" fill="#00B6ED"/>
<path d="M22.43 51.7599C22.43 54.6199 20.06 56.9899 17.24 56.9599C14.39 56.9199 12.09 54.5599 12.11 51.6899C12.13 48.8899 14.46 46.5499 17.26 46.5399C20.08 46.5299 22.43 48.8999 22.43 51.7599ZM17.32 53.3999C18.25 53.3799 18.98 52.6399 18.97 51.7299C18.96 50.7799 18.17 50.0599 17.19 50.0999C16.28 50.1399 15.55 50.9299 15.6 51.8199C15.65 52.7299 16.4 53.4199 17.33 53.3999H17.32Z" fill="#00B6ED"/>
<path d="M22.43 34.5C22.43 37.4 20.15 39.69 17.26 39.68C14.38 39.68 12.1 37.36 12.11 34.47C12.12 31.65 14.42 29.34 17.24 29.33C20.12 29.32 22.43 31.61 22.43 34.5ZM17.26 36.2C18.12 36.2 18.94 35.42 18.97 34.56C19 33.65 18.16 32.81 17.25 32.83C16.38 32.85 15.58 33.66 15.59 34.52C15.59 35.39 16.4 36.19 17.27 36.2H17.26Z" fill="#00B6ED"/>
<path d="M22.43 69.02C22.42 71.9 20.1 74.19 17.21 74.16C14.36 74.14 12.08 71.79 12.11 68.9C12.14 66.07 14.44 63.81 17.28 63.82C20.17 63.82 22.44 66.12 22.43 69.02ZM18.97 68.97C18.97 68.11 18.16 67.31 17.29 67.3C16.42 67.3 15.61 68.07 15.59 68.95C15.56 69.85 16.42 70.69 17.32 70.67C18.21 70.64 18.98 69.85 18.97 68.97Z" fill="#00B6ED"/>
<path d="M22.43 86.2799C22.41 89.1699 20.09 91.4399 17.2 91.3899C14.31 91.3399 12.08 89.04 12.11 86.12C12.14 83.32 14.47 81.0299 17.3 81.0399C20.17 81.0499 22.45 83.3799 22.43 86.2699V86.2799ZM17.27 84.5299C16.41 84.5299 15.59 85.3499 15.58 86.1999C15.57 87.0599 16.36 87.88 17.23 87.9C18.13 87.92 18.98 87.0799 18.96 86.1799C18.94 85.3099 18.13 84.5199 17.26 84.5199L17.27 84.5299Z" fill="#00B6ED"/>
</g>
<defs>
<clipPath id="clip0_337_2306">
<rect width="75.9" height="103.46" fill="white"/>
</clipPath>
</defs>
</svg>
