<svg width="165" height="141" viewBox="0 0 165 141" fill="none" xmlns="http://www.w3.org/2000/svg">
<path d="M114.504 88.6275C104.944 102.805 96.9798 124.495 86.6149 137.43C85.1463 139.252 84.0448 140.876 81.3053 140.17C77.3938 139.153 54.5317 95.3209 50.4365 88.5992C36.2872 85.4926 1.12551 62.8281 0.0240651 48.1421C-0.667871 39.0623 13.7357 26.4803 20.7539 20.9731C57.7654 -8.0741 111.454 -6.69022 147.237 23.5149C154.312 29.4881 166.089 39.7118 164.733 49.4695C162.798 63.3365 128.258 85.8032 114.49 88.6416L114.504 88.6275ZM72.9315 8.40527C49.321 12.1333 35.8776 41.4205 44.435 62.9411C46.5532 68.2648 54.108 81.2845 59.4458 83.1202C69.726 86.6505 102.868 87.639 110.536 79.7594C139.004 50.4863 117.3 1.40119 72.9315 8.40527ZM42.3169 77.0058C41.0883 71.6821 37.6287 68.5472 35.9765 62.9552C32.7427 52.0537 33.1381 40.7992 37.0214 30.1801C38.829 25.2377 42.2745 21.3685 43.729 16.4967C36.2448 18.403 7.57887 40.7427 7.60712 46.7442C7.64948 55.0474 34.3949 73.6167 42.3169 76.9916V77.0058ZM122.567 75.5795C126.677 78.6862 156.416 54.299 157.291 46.7583C148.734 33.4279 135.488 23.3031 121.169 16.5108C122.624 21.3826 126.069 25.2518 127.877 30.1942C133.554 45.6709 131.506 61.9667 122.567 75.5936V75.5795ZM102.868 92.4966C89.0578 93.6122 75.6992 94.7137 62.03 91.7906L82.4491 127.63L102.854 92.4966H102.868Z" fill="#575756"/>
<path d="M66.2702 40.4319L78.9228 43.2278C76.9317 38.0171 70.8313 31.4508 79.5723 30.5047C103.324 27.9347 106.318 61.1476 84.8819 64.0706C70.5913 66.0194 63.7284 53.1974 66.2702 40.4319Z" fill="#575756"/>
</svg>
