<svg width="75" height="75" viewBox="0 0 75 75" fill="none" xmlns="http://www.w3.org/2000/svg">
<g clip-path="url(#clip0_337_2375)">
<path d="M54.72 29.05H53.05V30.74H54.72V29.05Z" fill="white"/>
<path d="M48.44 29.03H46.76V30.72H48.44V29.03Z" fill="white"/>
<path d="M73.54 38.7901C73.11 38.1301 72.66 37.4701 72.23 36.8201C71.91 36.3401 71.59 35.8601 71.27 35.3801C69.03 32.0101 69.69 28.0701 72.89 25.6001C73 25.5201 73.1 25.4401 73.21 25.3601C73.42 25.2001 73.62 25.0501 73.81 24.8901C74.89 23.9701 75.27 22.5001 74.78 21.1501C74.31 19.8601 73.04 18.9601 71.62 18.9001C70.55 18.8601 69.62 19.1801 68.68 19.9101C64.8 22.9701 62.92 26.9601 63.11 31.7801C63.21 34.2401 64.01 36.6301 65.51 38.8701C66.08 39.7201 66.63 40.5701 67.21 41.4701C67.48 41.8801 67.75 42.2901 68.02 42.7201L68.06 42.7801V42.8501C68.13 43.1601 68.14 43.6901 68.09 44.4301L68.05 45.1501L67.49 44.7001C66.99 44.3001 66.47 43.9201 65.95 43.5801C65.48 43.2701 65.01 42.9501 64.55 42.6401C63.7 42.0701 62.83 41.4801 61.96 40.9201C60.54 40.0001 59.82 38.6501 59.82 36.9001C59.82 32.7901 59.82 28.6101 59.82 24.5701V21.4501C59.82 20.8701 59.7 20.4901 59.48 20.3201C59.25 20.1501 58.85 20.1501 58.29 20.3201C56.25 20.9201 54.73 21.9501 53.63 23.4801C53.42 23.7801 52.96 23.9401 52.62 23.9501C51.23 23.9801 49.98 23.9801 48.82 23.9501C48.52 23.9501 48.17 23.7801 47.88 23.5201L47.85 23.4901L47.83 23.4601C46.74 21.9501 45.22 20.9301 43.2 20.3401C42.64 20.1801 42.24 20.1801 42.01 20.3401C41.78 20.5101 41.67 20.8901 41.67 21.4701C41.67 22.6101 41.67 25.9801 41.67 30.4801C41.67 41.0201 41.65 58.6701 41.65 67.2301C41.65 67.4101 41.65 67.5701 41.67 67.7101L41.71 68.1201H41.32C40.96 68.1401 40.64 68.1501 40.36 68.1701C39.66 68.2101 39.34 68.2701 39.2 68.3101C38.73 68.4401 38.06 68.8401 37.49 70.0501C37.48 70.0801 37.47 70.1001 37.46 70.1101C36.89 71.2201 36.52 73.9001 36.4 74.9301H73.62C74.79 74.9301 74.98 74.7401 74.98 73.6001C74.98 70.8701 74.98 68.1401 74.98 65.4201C74.98 58.2801 74.98 50.9101 74.98 43.6501C74.98 41.8701 74.51 40.2901 73.54 38.8101V38.7901ZM73.19 69.5401V72.2501C73.19 72.3601 73.19 72.4701 73.17 72.59C73.17 72.64 73.17 72.7001 73.16 72.7601L73.14 73.1101H54.79L54.83 72.7001C55 70.98 56.09 69.9201 57.75 69.8901C58.47 69.8701 59.21 69.8801 59.92 69.8901C60.36 69.8901 60.79 69.8901 61.23 69.8901C62.07 69.8901 62.32 69.6401 62.36 68.7801C62.38 68.3001 62.39 67.8001 62.4 67.3201C62.43 65.9601 62.47 64.5501 62.65 63.1701C62.92 61.1401 63.88 59.2201 65.61 57.3101L64.29 56.0901C61.42 59.1301 60.22 62.9401 60.62 67.7101L60.65 68.1101H56.05V54.2901H54.26V54.7701C54.26 55.7701 54.26 56.7601 54.26 57.7601C54.26 61.3301 54.26 65.0201 54.24 68.6401C54.24 69.0601 54.07 69.4701 53.93 69.8301C53.9 69.9101 53.86 69.9901 53.83 70.0701C53.59 70.7001 53.33 71.3301 53.06 71.9901C52.95 72.2701 52.83 72.5601 52.71 72.8601L52.62 73.09H51.15H47.15H46.22L46.26 72.6801C46.4 71.3301 47.1 70.3901 48.23 70.0401C48.48 69.9601 48.75 69.9101 49.04 69.8901H49.06H49.18H49.35C49.41 69.8901 49.47 69.8901 49.53 69.8901C50.15 69.8501 50.38 69.6301 50.46 69.0401V54.2801H48.7C48.7 57.2101 48.7 63.9301 48.71 67.7901V68.1401L48.36 68.1601C47.96 68.1801 47.64 68.2101 47.39 68.2401C47.22 68.2601 47.09 68.2901 47 68.3101C46.53 68.4401 45.86 68.8401 45.29 70.0501C45.28 70.0801 45.27 70.1001 45.26 70.1101C45 70.6101 44.74 71.5501 44.51 72.8101L44.45 73.1201H38.4L38.44 72.7101C38.61 71.0201 39.67 69.9701 41.28 69.9001H41.3C41.3 69.9001 41.34 69.9001 41.36 69.9001C41.57 69.9001 41.77 69.9001 41.98 69.9001H42.14H42.22H42.32C42.32 69.9001 42.35 69.9001 42.36 69.9001H42.4C43.09 69.8801 43.29 69.6501 43.38 69.2801C43.42 69.1401 43.44 68.9801 43.44 68.7901C43.44 68.4101 43.44 44.5701 43.44 31.7701C43.44 27.5801 43.44 24.5401 43.44 23.8601V22.3701L43.96 22.6101C45.18 23.1601 46.05 23.9701 46.7 25.1601C46.94 25.6001 47.23 25.7901 47.69 25.7901C48.39 25.7901 49.1 25.7901 49.78 25.7901C50.41 25.7901 51.05 25.7901 51.7 25.7901L52.07 25.7801C52.64 25.7801 53.22 25.7801 53.79 25.7801C54.24 25.7801 54.54 25.6001 54.78 25.1501C55.43 23.9601 56.29 23.1501 57.52 22.6001L58.04 22.3601V27.7501C58.04 30.9201 58.04 34.0901 58.04 37.2601C58.04 39.3601 58.91 41.0301 60.64 42.2401C61.51 42.8501 62.41 43.4401 63.28 44.0201C63.87 44.4101 64.48 44.8201 65.08 45.2201C69.49 48.2101 72.15 52.4301 72.99 57.7401C73.1 58.4701 73.16 59.2501 73.17 60.0701C73.18 63.2401 73.18 66.4601 73.18 69.5801L73.19 69.5401ZM73.19 48.3001V51.3501L72.52 50.4701C72.45 50.3801 72.4 50.3101 72.35 50.2501C72.26 50.1401 72.2 50.0601 72.14 49.9701C71.5 48.9101 70.76 47.9101 69.94 46.9901L69.84 46.8801V46.7401C69.85 45.7601 69.87 44.0401 69.91 43.5701C69.94 43.1301 69.79 42.5601 69.73 42.3501C69.65 42.1801 69.57 42.0101 69.5 41.8401C69.46 41.7401 69.41 41.6501 69.37 41.5601C69.27 41.3401 69.15 41.0901 69 40.8601C68.59 40.2001 68.15 39.5401 67.72 38.9001C67.51 38.5901 67.31 38.2801 67.1 37.9701C63.27 32.1701 64.49 25.2601 70.08 21.1701C70.56 20.8201 71.29 20.6601 71.83 20.7801C72.4 20.9101 72.92 21.5101 73.08 21.9801C73.25 22.5101 72.85 23.2001 72.61 23.4901C72.37 23.7801 72.06 24.0001 71.76 24.2101C71.61 24.3201 71.46 24.4201 71.33 24.5301C69.67 25.9001 68.58 27.8001 68.24 29.9001C67.9 32.0001 68.35 34.1601 69.49 35.9701C70.16 37.0301 70.88 38.0901 71.57 39.1101L71.97 39.7001C72.78 40.9001 73.19 42.2701 73.19 43.7701C73.19 45.2601 73.19 46.7501 73.19 48.3001Z" fill="white"/>
<path d="M50.56 6.43997C49.37 5.67997 48.18 4.93997 46.93 4.15997C46.43 3.84997 45.93 3.53997 45.42 3.21997L43.43 2.02997C41.66 0.689967 40.06 0.0499668 38.41 0.0299668C33.95 -0.0200332 29.45 -3.32352e-05 25.25 0.0299668C23.98 0.0299668 22.72 0.419967 21.5 1.16997C18.66 2.90997 15.85 4.67997 13.22 6.32997C12.59 6.71997 12.48 7.06997 12.77 7.74997C13.39 9.19997 14.02 10.67 14.63 12.1C15.22 13.47 15.8 14.84 16.39 16.21C16.62 16.75 16.94 16.96 17.49 16.94C18 16.92 18.52 16.92 19.06 16.93C19.31 16.93 19.57 16.93 19.84 16.93H20.21V21.18C20.21 23.56 20.21 25.94 20.21 28.32C20.21 30.82 19.33 32.95 17.59 34.66C16.19 36.04 14.82 37.41 13.37 38.87C12.73 39.51 12.08 40.16 11.42 40.82L10.87 41.37L10.79 40.59C10.75 40.25 10.71 39.92 10.67 39.6C10.59 38.94 10.51 38.31 10.49 37.68C10.31 32.41 11.5 27.96 14.11 24.08C14.31 23.79 14.52 23.36 14.39 23.02C14.26 22.67 13.83 22.48 13.49 22.39C13.2 22.31 12.9 22.21 12.61 22.13C11.7 21.85 10.76 21.56 9.85001 21.5C7.22001 21.34 4.88001 23.2 4.29001 25.91C4.19001 26.38 3.94001 26.85 3.64001 27.15C1.35001 29.42 0.62001 32.09 1.43001 35.31C1.55001 35.8 1.54001 36.18 1.40001 36.45C0.0900105 38.97 -0.20999 41.81 0.41001 45.67C0.50001 46.24 0.65001 46.81 0.81001 47.42C0.88001 47.7 0.96001 48 1.04001 48.3C1.40001 49.18 2.37001 50.73 2.91001 51.58L3.02001 51.75L2.93001 51.94C1.87001 54.21 1.09001 56.64 0.610011 59.15C0.290011 60.79 0.11001 62.51 0.0600105 64.24C1.04606e-05 66.53 0.0100105 68.86 0.0200105 71.11C0.0200105 71.99 0.0200105 72.88 0.0300105 73.76C0.0300105 74.67 0.28001 74.93 1.16001 74.93C3.36001 74.93 5.56001 74.93 7.76001 74.93H13.25H14.07H47.61C47.64 74.06 47.68 71.76 47.25 70.43C46.72 68.77 45.42 67.5 43.7 66.96L43.44 66.88V16.92H43.81C44.05 16.92 44.28 16.92 44.51 16.92C45.03 16.92 45.57 16.91 46.1 16.93C46.68 16.95 47 16.74 47.25 16.16C47.95 14.51 48.66 12.84 49.36 11.23C49.85 10.08 50.35 8.92997 50.84 7.77997C51.16 7.01997 50.96 6.69997 50.56 6.43997ZM2.81001 47.81V47.77C2.13001 45.72 1.85001 43.66 1.94001 41.46C2.01001 39.75 2.42001 38.3 3.19001 37.02C3.55001 36.42 3.59001 35.91 3.34001 35.27C2.31001 32.65 3.06001 29.92 5.31001 28.15C5.78001 27.78 6.00001 27.38 6.04001 26.83C6.14001 25.47 6.81001 24.35 7.88001 23.75C8.99001 23.13 10.36 23.16 11.64 23.83L11.98 24.01L11.79 24.35C10.53 26.58 9.64001 28.98 9.15001 31.49C8.48001 34.91 8.50001 38.39 9.20001 42.15C9.28001 42.56 9.12001 43.12 8.83001 43.42C7.09001 45.23 5.58001 47.2 4.35001 49.28L4.04001 49.8L2.81001 47.84V47.81ZM45.42 71.54C45.43 71.81 45.42 72.08 45.42 72.36C45.42 72.49 45.42 72.62 45.42 72.75V73.12H39.6L39.63 72.72C39.88 69.75 38.72 67.86 36.1 66.94L35.85 66.85V44.19H34.07V50.08C34.07 55.83 34.07 61.58 34.07 67.33C34.07 68.36 34.19 68.49 35.21 68.64C36.75 68.86 37.79 70 37.85 71.56C37.86 71.82 37.85 72.07 37.85 72.34C37.85 72.47 37.85 72.6 37.85 72.73V73.1H28.29V44.19H26.53V67.23L20.71 66.68V66.18C20.71 66.03 20.71 65.84 20.71 65.64C20.69 64.89 20.69 64.13 20.69 63.4C20.69 61.76 20.69 60.07 20.51 58.44C20.1 54.76 18.48 51.4 15.69 48.47L14.46 49.78C14.46 49.78 14.5 49.82 14.51 49.84C14.73 50.09 14.97 50.37 15.2 50.65C17.58 53.55 18.83 56.97 18.91 60.81C18.94 62.29 18.94 63.79 18.93 65.24C18.93 65.97 18.93 66.7 18.93 67.43C18.93 68.37 19.18 68.62 20.12 68.62C20.72 68.62 21.33 68.62 21.93 68.62C22.3 68.62 22.67 68.62 23.03 68.62C24.22 68.62 25.07 68.9 25.65 69.49C26.23 70.08 26.51 70.94 26.5 72.15C26.5 72.27 26.5 72.38 26.5 72.52V73.14H13.61V73.19H2.03001L1.94001 72.95C1.94001 72.95 1.90001 72.87 1.89001 72.83C1.85001 72.74 1.80001 72.65 1.81001 72.52C1.82001 71.46 1.82001 70.39 1.81001 69.34C1.81001 66.96 1.79001 64.5 2.00001 62.09C2.51001 56.01 4.77001 50.69 8.71001 46.28C11.28 43.4 14.08 40.65 16.79 37.98C17.32 37.46 17.85 36.94 18.38 36.41C20.44 34.38 21.55 32.36 21.88 30.07C21.9 29.93 21.97 29.84 22.01 29.77C22.02 29.76 22.03 29.74 22.04 29.72L22.15 29.53H41.63V67.2C41.63 68.35 41.71 68.45 42.83 68.62C44.33 68.85 45.34 69.98 45.41 71.5L45.42 71.54ZM22.01 27.7V24.53H41.58V27.7H22.01ZM48.25 9.19997C47.49 10.98 46.7 12.81 45.91 14.6C45.73 15.02 45.09 15.12 45.02 15.13C44.74 15.17 44.47 15.16 44.18 15.15C44.06 15.15 43.93 15.15 43.79 15.15H43.42V14.78C43.42 14.34 43.42 13.9 43.42 13.46C43.42 12.34 43.43 11.27 43.4 10.19C43.39 9.72997 43.27 9.24997 43.08 8.83997C42.57 7.75997 42.03 6.69997 41.47 5.57997C41.31 5.25997 41.14 4.92997 40.97 4.59997L39.35 5.39997C39.49 5.67997 39.63 5.95997 39.77 6.23997C40.29 7.26997 40.78 8.22997 41.25 9.23997C41.48 9.73997 41.62 10.3 41.62 10.81C41.64 13.51 41.64 16.26 41.64 18.92C41.64 19.77 41.64 20.61 41.64 21.46V22.66H22.03L22.01 22.31C22.01 22.23 22.01 22.16 22 22.09C22 21.93 21.98 21.77 21.98 21.6V19.6C21.98 16.69 21.98 13.68 21.99 10.72C21.99 10.27 22.12 9.76997 22.34 9.29997C22.82 8.28997 23.31 7.29997 23.84 6.25997C23.98 5.97997 24.12 5.69997 24.26 5.41997L22.64 4.60997C22.45 4.97997 22.27 5.35997 22.08 5.72997C21.43 7.01997 20.81 8.24997 20.25 9.51997C20.14 9.76997 20.16 10.12 20.19 10.49C20.2 10.66 20.21 10.84 20.21 11.01C20.21 11.88 20.21 12.76 20.21 13.62V14.87L20.03 14.98C20 15 19.98 15.01 19.96 15.02C19.9 15.06 19.81 15.13 19.67 15.13C18.06 15.22 17.9 15.12 17.28 13.65C16.7 12.3 16.12 10.95 15.54 9.57997L14.69 7.58997L14.95 7.41997C15.02 7.36997 15.09 7.32997 15.16 7.27997C15.31 7.17997 15.46 7.07997 15.61 6.98997C16.26 6.57997 16.91 6.17997 17.56 5.76997C18.98 4.88997 20.45 3.97997 21.87 3.05997C23.22 2.18997 24.67 1.76997 26.31 1.78997H26.53C29.48 1.80997 32.53 1.82997 35.52 1.78997C37.77 1.74997 40.33 1.70997 42.5 3.61997L44.47 4.75997L48.96 7.57997L48.26 9.20997L48.25 9.19997Z" fill="white"/>
<path d="M33.82 16.33L33.55 15.95L33.98 15.77C34.06 15.73 34.14 15.7 34.22 15.67C34.37 15.61 34.5 15.56 34.61 15.5C35.42 15.08 35.83 14.47 35.85 13.65C35.86 13.13 35.87 12.57 35.85 12.02C35.81 11.01 34.93 10.13 33.93 10.11C32.92 10.08 31.92 10.08 30.96 10.11C29.95 10.14 29.09 11 29.04 12.03C29.04 12.14 29.04 12.26 29.04 12.39C29.04 12.56 29.04 12.73 29.04 12.91C28.91 14.45 29.48 15.32 30.89 15.72L31.39 15.86L31.1 16.29C30.12 17.71 28.76 17.69 27.56 17.67C27.22 17.67 26.89 17.66 26.58 17.68V19.42C26.58 19.42 26.67 19.42 26.71 19.42C28.75 19.51 30.68 19.59 32.12 17.94L32.35 17.68L32.63 17.89C34.73 19.45 35.17 19.59 38.4 19.42V17.68C38.07 17.66 37.72 17.66 37.39 17.67C36.19 17.69 34.83 17.71 33.85 16.33H33.82ZM30.84 13.86V11.93H34.02V13.86H30.84Z" fill="white"/>
<path d="M38.32 7.62H36.66V9.33H38.32V7.62Z" fill="white"/>
<path d="M28.22 7.63H26.55V9.32H28.22V7.63Z" fill="white"/>
</g>
<defs>
<clipPath id="clip0_337_2375">
<rect width="74.99" height="74.94" fill="white"/>
</clipPath>
</defs>
</svg>
